<?xml version="1.0" encoding="UTF-8" standalone="no"?>
<!-- Created with Inkscape (http://www.inkscape.org/) -->

<svg
   xmlns:dc="http://purl.org/dc/elements/1.1/"
   xmlns:cc="http://creativecommons.org/ns#"
   xmlns:rdf="http://www.w3.org/1999/02/22-rdf-syntax-ns#"
   xmlns:svg="http://www.w3.org/2000/svg"
   xmlns="http://www.w3.org/2000/svg"
   xmlns:sodipodi="http://sodipodi.sourceforge.net/DTD/sodipodi-0.dtd"
   xmlns:inkscape="http://www.inkscape.org/namespaces/inkscape"
   version="1.1"
   id="svg2"
   xml:space="preserve"
   width="614.66669"
   height="362.66666"
   viewBox="0 0 614.66669 362.66666"
   sodipodi:docname="dicescore.svg"
   inkscape:version="0.92.3 (2405546, 2018-03-11)"><metadata
     id="metadata8"><rdf:RDF><cc:Work
         rdf:about=""><dc:format>image/svg+xml</dc:format><dc:type
           rdf:resource="http://purl.org/dc/dcmitype/StillImage" /><dc:title></dc:title></cc:Work></rdf:RDF></metadata><defs
     id="defs6" /><sodipodi:namedview
     pagecolor="#ffffff"
     bordercolor="#666666"
     borderopacity="1"
     objecttolerance="10"
     gridtolerance="10"
     guidetolerance="10"
     inkscape:pageopacity="0"
     inkscape:pageshadow="2"
     inkscape:window-width="733"
     inkscape:window-height="480"
     id="namedview4"
     showgrid="false"
     inkscape:zoom="0.61334054"
     inkscape:cx="307.33334"
     inkscape:cy="181.33333"
     inkscape:window-x="0"
     inkscape:window-y="0"
     inkscape:window-maximized="0"
     inkscape:current-layer="g10" /><g
     id="g10"
     inkscape:groupmode="layer"
     inkscape:label="ink_ext_XXXXXX"
     transform="matrix(1.3333333,0,0,-1.3333333,0,362.66667)"><g
       id="g12"
       transform="scale(0.1)"><path
         d="M 0,5 H 4605 V 2720 H 0 Z"
         style="fill:#ffffff;fill-opacity:1;fill-rule:evenodd;stroke:none"
         id="path14"
         inkscape:connector-curvature="0" /><path
         d="M 1043.98,2349.1 V 236.988 M 1467.62,2349.1 V 236.988 M 1892.38,2349.1 V 236.988 M 2316.02,2349.1 V 236.988 M 2740.78,2349.1 V 236.988 M 3165.59,2349.1 V 236.988 M 3589.22,2349.1 V 236.988 M 4013.98,2349.1 V 236.988 M 4438.01,2349.1 V 236.988"
         style="fill:none;stroke:#d9d9d9;stroke-width:7.5;stroke-linecap:butt;stroke-linejoin:round;stroke-miterlimit:10;stroke-dasharray:none;stroke-opacity:1"
         id="path16"
         inkscape:connector-curvature="0" /><path
         d="M 3037.19,334.41 H 619.1 v 106.801 h 2418.09 z m 85.19,301.18 H 619.1 v 108 H 3122.38 Z M 3334.8,938.012 H 619.1 v 106.789 h 2715.7 z m 127.19,301.208 H 619.1 v 106.801 h 2842.89 z m 85.2,302.38 H 619.1 v 106.797 h 2928.09 z m 254.41,301.21 H 619.1 v 106.801 h 3182.5 z m 381.6,302.39 H 619.1 v 106.789 h 3564.1 z"
         style="fill:#5b9bd5;fill-opacity:1;fill-rule:nonzero;stroke:none"
         id="path18"
         inkscape:connector-curvature="0" /><path
         d="M 619.102,236.988 V 2349.1"
         style="fill:none;stroke:#d9d9d9;stroke-width:7.5;stroke-linecap:butt;stroke-linejoin:round;stroke-miterlimit:10;stroke-dasharray:none;stroke-opacity:1"
         id="path20"
         inkscape:connector-curvature="0" /><g
         id="g22"
         transform="scale(10)"><text
           transform="matrix(1,0,0,-1,59.6602,9.41992)"
           style="font-variant:normal;font-weight:normal;font-size:9px;font-family:Calibri;-inkscape-font-specification:Calibri;writing-mode:lr-tb;fill:#595959;fill-opacity:1;fill-rule:nonzero;stroke:none"
           id="text40"><tspan
             x="0 39.0312 43.5942 45.862202 81.460258 86.023262 88.29126 123.91938 128.48238 130.75038 166.34843 170.91144 173.17944 208.77715 213.34013 215.60814 251.23627 255.79926 258.06726 293.66531 298.22833 300.49631 336.09439 340.65738 342.92538 378.55313 383.11615 385.38412"
             y="0"
             sodipodi:role="line"
             id="tspan24">00.10.20.30.40.50.60.70.80.9</tspan><tspan
             x="-40.124199 -35.696083 -30.898926 -25.624743 -20.827744 -15.049743 -11.341911"
             y="-26.7801"
             sodipodi:role="line"
             id="tspan26">TRACULA</tspan><tspan
             x="-52.820301 -48.392181 -45.251183 -40.940182 -37.232109 -34.21711 -28.124172 -23.444094 -18.890121 -15.749121 -13.733043 -9.2868824"
             y="-56.969898"
             sodipodi:role="line"
             id="tspan28">TractQuerier</tspan><tspan
             x="-27 -18.99 -11.295"
             y="-87.140198"
             sodipodi:role="line"
             id="tspan30">WMA</tspan><tspan
             x="-53.1563 -48.242348 -43.805172 -39.96204 -35.290913 -30.394913 -25.579874 -20.899796 -16.228703 -14.077664 -9.6404886"
             y="-117.33"
             sodipodi:role="line"
             id="tspan32">RecoBundles</tspan><tspan
             x="-24.1903 -19.0333 -15.919276 -13.858276 -9.5472765"
             y="-147.49989"
             sodipodi:role="line"
             id="tspan34">Atlas</tspan><tspan
             x="-48.020401 -40.325401 -35.546398 -33.512547 -30.497549 -28.472486 -25.718487 -18.023485 -13.712486 -10.238408"
             y="-177.6698"
             sodipodi:role="line"
             id="tspan36">Multi-Mask</tspan><tspan
             x="-37.5802 -33.152084 -30.011084 -25.700083 -21.992008 -18.977009 -14.800989 -10.363813"
             y="-207.86"
             sodipodi:role="line"
             id="tspan38">TractSeg</tspan></text>
<text
           transform="matrix(1,0,0,-1,156.62,251.16972)"
           style="font-variant:normal;font-weight:normal;font-size:14.03999996px;font-family:Calibri;-inkscape-font-specification:Calibri;writing-mode:lr-tb;fill:#595959;fill-opacity:1;fill-rule:nonzero;stroke:none"
           id="text44"><tspan
             x="0 8.6345997 11.84976 17.746578 24.738499 27.841188 34.285549 40.069843 47.468922 52.186192 59.178112 62.280792 69.581551 75.07119 78.286354 85.657349 92.270195 95.485542 104.23246 111.71578 118.89036 122.00729 129.30804 135.90681 140.46986"
             y="0"
             sodipodi:role="line"
             id="tspan42">Dice Score using HCP data</tspan></text>
</g><path
         d="M 0,5 H 4605 V 2720 H 0 Z"
         style="fill:none;stroke:#d9d9d9;stroke-width:7.5;stroke-linecap:butt;stroke-linejoin:round;stroke-miterlimit:10;stroke-dasharray:none;stroke-opacity:1"
         id="path46"
         inkscape:connector-curvature="0" /></g></g></svg>